<?xml version="1.0" encoding="UTF-8"?>
<!DOCTYPE svg PUBLIC "-//W3C//DTD SVG 1.1//EN" "http://www.w3.org/Graphics/SVG/1.1/DTD/svg11.dtd">
<!-- Creator: CorelDRAW 2018 (64-Bit) -->
<svg xmlns="http://www.w3.org/2000/svg" xml:space="preserve" width="4.7412mm" height="4.7412mm" version="1.1" style="shape-rendering:geometricPrecision; text-rendering:geometricPrecision; image-rendering:optimizeQuality; fill-rule:evenodd; clip-rule:evenodd"
viewBox="0 0 474.12 474.12"
 xmlns:xlink="http://www.w3.org/1999/xlink">
 <defs>
  <style type="text/css">
   <![CDATA[
    .fil0 {fill:#00A72F}
    .fil1 {fill:white}
   ]]>
  </style>
 </defs>
 <g id="Слой_x0020_1">
  <metadata id="CorelCorpID_0Corel-Layer"/>
  <g id="_2374282142240">
   <polygon class="fil0" points="218.29,0.98 208.41,0.98 208.41,1.97 200.51,1.97 200.51,2.96 194.59,2.96 194.59,3.95 189.65,3.95 189.65,4.93 185.7,4.93 185.7,5.92 180.76,5.92 180.76,6.91 176.81,6.91 176.81,7.9 173.84,7.9 173.84,8.89 169.89,8.89 169.89,9.87 166.93,9.87 166.93,10.86 163.96,10.86 163.96,11.85 161,11.85 161,12.84 158.04,12.84 158.04,13.82 155.08,13.82 155.08,14.81 152.11,14.81 152.11,15.8 150.14,15.8 150.14,16.79 147.17,16.79 147.17,17.77 145.2,17.77 145.2,18.76 143.22,18.76 143.22,19.75 140.26,19.75 140.26,20.74 138.28,20.74 138.28,21.73 136.31,21.73 136.31,22.71 134.33,22.71 134.33,23.7 132.36,23.7 132.36,24.69 130.38,24.69 130.38,25.68 128.41,25.68 128.41,26.66 126.43,26.66 126.43,27.65 124.45,27.65 124.45,28.64 122.48,28.64 122.48,29.63 120.5,29.63 120.5,30.62 119.52,30.62 119.52,31.6 117.54,31.6 117.54,32.59 115.56,32.59 115.56,33.58 114.58,33.58 114.58,34.57 112.6,34.57 112.6,35.55 110.63,35.55 110.63,36.54 109.64,36.54 109.64,37.53 107.66,37.53 107.66,38.52 106.67,38.52 106.67,39.51 104.7,39.51 104.7,40.49 103.71,40.49 103.71,41.48 101.74,41.48 101.74,42.47 100.75,42.47 100.75,43.46 98.77,43.46 98.77,44.44 97.78,44.44 97.78,45.43 96.8,45.43 96.8,46.42 94.82,46.42 94.82,47.41 93.83,47.41 93.83,48.4 92.85,48.4 92.85,49.38 90.87,49.38 90.87,50.37 89.88,50.37 89.88,51.36 88.89,51.36 88.89,52.35 87.91,52.35 87.91,53.33 85.93,53.33 85.93,54.32 84.94,54.32 84.94,55.31 83.96,55.31 83.96,56.3 82.97,56.3 82.97,57.29 81.98,57.29 81.98,58.27 80,58.27 80,59.26 79.02,59.26 79.02,60.25 78.03,60.25 78.03,61.24 77.04,61.24 77.04,62.22 76.05,62.22 76.05,63.21 75.07,63.21 75.07,64.2 74.08,64.2 74.08,65.19 73.09,65.19 73.09,66.18 72.1,66.18 72.1,67.16 71.11,67.16 71.11,68.15 70.13,68.15 70.13,69.14 69.14,69.14 69.14,70.13 68.15,70.13 68.15,71.11 67.16,71.11 67.16,72.1 66.18,72.1 66.18,73.09 65.19,73.09 65.19,74.08 64.2,74.08 64.2,75.07 63.21,75.07 63.21,76.05 62.22,76.05 62.22,77.04 61.24,77.04 61.24,78.03 60.25,78.03 60.25,79.02 59.26,79.02 59.26,80 58.27,80 58.27,81.98 57.29,81.98 57.29,82.97 56.3,82.97 56.3,83.96 55.31,83.96 55.31,84.94 54.32,84.94 54.32,85.93 53.33,85.93 53.33,87.91 52.35,87.91 52.35,88.89 51.36,88.89 51.36,89.88 50.37,89.88 50.37,90.87 49.38,90.87 49.38,92.85 48.4,92.85 48.4,93.83 47.41,93.83 47.41,94.82 46.42,94.82 46.42,96.8 45.43,96.8 45.43,97.78 44.44,97.78 44.44,98.77 43.46,98.77 43.46,100.75 42.47,100.75 42.47,101.74 41.48,101.74 41.48,103.71 40.49,103.71 40.49,104.7 39.51,104.7 39.51,106.67 38.52,106.67 38.52,107.66 37.53,107.66 37.53,109.64 36.54,109.64 36.54,110.63 35.55,110.63 35.55,112.6 34.57,112.6 34.57,113.59 33.58,113.59 33.58,115.56 32.59,115.56 32.59,117.54 31.6,117.54 31.6,119.52 30.62,119.52 30.62,120.5 29.63,120.5 29.63,122.48 28.64,122.48 28.64,124.45 27.65,124.45 27.65,126.43 26.66,126.43 26.66,128.41 25.68,128.41 25.68,130.38 24.69,130.38 24.69,132.36 23.7,132.36 23.7,134.33 22.71,134.33 22.71,136.31 21.73,136.31 21.73,138.28 20.74,138.28 20.74,140.26 19.75,140.26 19.75,143.22 18.76,143.22 18.76,145.2 17.77,145.2 17.77,147.17 16.79,147.17 16.79,150.14 15.8,150.14 15.8,152.11 14.81,152.11 14.81,155.08 13.82,155.08 13.82,158.04 12.84,158.04 12.84,161 11.85,161 11.85,163.96 10.86,163.96 10.86,166.93 9.87,166.93 9.87,169.89 8.89,169.89 8.89,173.84 7.9,173.84 7.9,176.81 6.91,176.81 6.91,180.76 5.92,180.76 5.92,185.7 4.93,185.7 4.93,189.65 3.95,189.65 3.95,194.59 2.96,194.59 2.96,201.5 1.97,201.5 1.97,208.41 0.98,208.41 0.98,218.29 -0.01,218.29 -0.01,256.82 0.98,256.82 0.98,265.71 1.97,265.71 1.97,272.62 2.96,272.62 2.96,278.55 3.95,278.55 3.95,284.47 4.93,284.47 4.93,288.42 5.92,288.42 5.92,293.36 6.91,293.36 6.91,297.31 7.9,297.31 7.9,300.28 8.89,300.28 8.89,304.23 9.87,304.23 9.87,307.19 10.86,307.19 10.86,310.16 11.85,310.16 11.85,313.12 12.84,313.12 12.84,316.08 13.82,316.08 13.82,319.05 14.81,319.05 14.81,322.01 15.8,322.01 15.8,323.98 16.79,323.98 16.79,326.95 17.77,326.95 17.77,328.92 18.76,328.92 18.76,330.9 19.75,330.9 19.75,333.86 20.74,333.86 20.74,335.84 21.73,335.84 21.73,337.81 22.71,337.81 22.71,339.79 23.7,339.79 23.7,341.76 24.69,341.76 24.69,343.74 25.68,343.74 25.68,345.71 26.66,345.71 26.66,347.69 27.65,347.69 27.65,349.67 28.64,349.67 28.64,351.64 29.63,351.64 29.63,353.62 30.62,353.62 30.62,354.6 31.6,354.6 31.6,356.58 32.59,356.58 32.59,358.56 33.58,358.56 33.58,359.54 34.57,359.54 34.57,361.52 35.55,361.52 35.55,363.49 36.54,363.49 36.54,364.48 37.53,364.48 37.53,366.46 38.52,366.46 38.52,367.45 39.51,367.45 39.51,369.42 40.49,369.42 40.49,370.41 41.48,370.41 41.48,372.38 42.47,372.38 42.47,373.37 43.46,373.37 43.46,375.35 44.44,375.35 44.44,376.34 45.43,376.34 45.43,377.32 46.42,377.32 46.42,379.3 47.41,379.3 47.41,380.29 48.4,380.29 48.4,381.27 49.38,381.27 49.38,383.25 50.37,383.25 50.37,384.24 51.36,384.24 51.36,385.23 52.35,385.23 52.35,386.21 53.33,386.21 53.33,388.19 54.32,388.19 54.32,389.18 55.31,389.18 55.31,390.16 56.3,390.16 56.3,391.15 57.29,391.15 57.29,392.14 58.27,392.14 58.27,394.12 59.26,394.12 59.26,395.1 60.25,395.1 60.25,396.09 61.24,396.09 61.24,397.08 62.22,397.08 62.22,398.07 63.21,398.07 63.21,399.05 64.2,399.05 64.2,400.04 65.19,400.04 65.19,401.03 66.18,401.03 66.18,402.02 67.16,402.02 67.16,403.01 68.15,403.01 68.15,403.99 69.14,403.99 69.14,404.98 70.13,404.98 70.13,405.97 71.11,405.97 71.11,406.96 72.1,406.96 72.1,407.94 73.09,407.94 73.09,408.93 74.08,408.93 74.08,409.92 75.07,409.92 75.07,410.91 76.05,410.91 76.05,411.9 77.04,411.9 77.04,412.88 78.03,412.88 78.03,413.87 79.02,413.87 79.02,414.86 80,414.86 80,415.85 81.98,415.85 81.98,416.83 82.97,416.83 82.97,417.82 83.96,417.82 83.96,418.81 84.94,418.81 84.94,419.8 85.93,419.8 85.93,420.79 87.91,420.79 87.91,421.77 88.89,421.77 88.89,422.76 89.88,422.76 89.88,423.75 90.87,423.75 90.87,424.74 92.85,424.74 92.85,425.72 93.83,425.72 93.83,426.71 94.82,426.71 94.82,427.7 96.8,427.7 96.8,428.69 97.78,428.69 97.78,429.68 98.77,429.68 98.77,430.66 100.75,430.66 100.75,431.65 101.74,431.65 101.74,432.64 103.71,432.64 103.71,433.63 104.7,433.63 104.7,434.61 106.67,434.61 106.67,435.6 107.66,435.6 107.66,436.59 109.64,436.59 109.64,437.58 110.63,437.58 110.63,438.57 112.6,438.57 112.6,439.55 114.58,439.55 114.58,440.54 115.56,440.54 115.56,441.53 117.54,441.53 117.54,442.52 119.52,442.52 119.52,443.5 120.5,443.5 120.5,444.49 122.48,444.49 122.48,445.48 124.45,445.48 124.45,446.47 126.43,446.47 126.43,447.46 128.41,447.46 128.41,448.44 130.38,448.44 130.38,449.43 132.36,449.43 132.36,450.42 134.33,450.42 134.33,451.41 136.31,451.41 136.31,452.39 138.28,452.39 138.28,453.38 140.26,453.38 140.26,454.37 143.22,454.37 143.22,455.36 145.2,455.36 145.2,456.35 147.17,456.35 147.17,457.33 150.14,457.33 150.14,458.32 152.11,458.32 152.11,459.31 155.08,459.31 155.08,460.3 158.04,460.3 158.04,461.28 161,461.28 161,462.27 163.96,462.27 163.96,463.26 166.93,463.26 166.93,464.25 169.89,464.25 169.89,465.24 173.84,465.24 173.84,466.22 176.81,466.22 176.81,467.21 180.76,467.21 180.76,468.2 185.7,468.2 185.7,469.19 189.65,469.19 189.65,470.17 195.57,470.17 195.57,471.16 201.5,471.16 201.5,472.15 208.41,472.15 208.41,473.14 218.29,473.14 218.29,474.13 255.83,474.13 255.83,473.14 265.71,473.14 265.71,472.15 272.62,472.15 272.62,471.16 278.55,471.16 278.55,470.17 284.47,470.17 284.47,469.19 288.42,469.19 288.42,468.2 293.36,468.2 293.36,467.21 297.31,467.21 297.31,466.22 300.28,466.22 300.28,465.24 304.23,465.24 304.23,464.25 307.19,464.25 307.19,463.26 310.16,463.26 310.16,462.27 313.12,462.27 313.12,461.28 316.08,461.28 316.08,460.3 319.05,460.3 319.05,459.31 322.01,459.31 322.01,458.32 323.98,458.32 323.98,457.33 326.95,457.33 326.95,456.35 328.92,456.35 328.92,455.36 330.9,455.36 330.9,454.37 333.86,454.37 333.86,453.38 335.84,453.38 335.84,452.39 337.81,452.39 337.81,451.41 339.79,451.41 339.79,450.42 341.76,450.42 341.76,449.43 343.74,449.43 343.74,448.44 345.71,448.44 345.71,447.46 347.69,447.46 347.69,446.47 349.67,446.47 349.67,445.48 351.64,445.48 351.64,444.49 353.62,444.49 353.62,443.5 354.6,443.5 354.6,442.52 356.58,442.52 356.58,441.53 358.56,441.53 358.56,440.54 359.54,440.54 359.54,439.55 361.52,439.55 361.52,438.57 363.49,438.57 363.49,437.58 364.48,437.58 364.48,436.59 366.46,436.59 366.46,435.6 367.45,435.6 367.45,434.61 369.42,434.61 369.42,433.63 370.41,433.63 370.41,432.64 372.38,432.64 372.38,431.65 373.37,431.65 373.37,430.66 375.35,430.66 375.35,429.68 376.34,429.68 376.34,428.69 377.32,428.69 377.32,427.7 379.3,427.7 379.3,426.71 380.29,426.71 380.29,425.72 381.27,425.72 381.27,424.74 383.25,424.74 383.25,423.75 384.24,423.75 384.24,422.76 385.23,422.76 385.23,421.77 386.21,421.77 386.21,420.79 388.19,420.79 388.19,419.8 389.18,419.8 389.18,418.81 390.16,418.81 390.16,417.82 391.15,417.82 391.15,416.83 392.14,416.83 392.14,415.85 394.12,415.85 394.12,414.86 395.1,414.86 395.1,413.87 396.09,413.87 396.09,412.88 397.08,412.88 397.08,411.9 398.07,411.9 398.07,410.91 399.05,410.91 399.05,409.92 400.04,409.92 400.04,408.93 401.03,408.93 401.03,407.94 402.02,407.94 402.02,406.96 403.01,406.96 403.01,405.97 403.99,405.97 403.99,404.98 404.98,404.98 404.98,403.99 405.97,403.99 405.97,403.01 406.96,403.01 406.96,402.02 407.94,402.02 407.94,401.03 408.93,401.03 408.93,400.04 409.92,400.04 409.92,399.05 410.91,399.05 410.91,398.07 411.9,398.07 411.9,397.08 412.88,397.08 412.88,396.09 413.87,396.09 413.87,395.1 414.86,395.1 414.86,394.12 415.85,394.12 415.85,392.14 416.83,392.14 416.83,391.15 417.82,391.15 417.82,390.16 418.81,390.16 418.81,389.18 419.8,389.18 419.8,388.19 420.79,388.19 420.79,386.21 421.77,386.21 421.77,385.23 422.76,385.23 422.76,384.24 423.75,384.24 423.75,383.25 424.74,383.25 424.74,381.27 425.72,381.27 425.72,380.29 426.71,380.29 426.71,379.3 427.7,379.3 427.7,377.32 428.69,377.32 428.69,376.34 429.68,376.34 429.68,375.35 430.66,375.35 430.66,373.37 431.65,373.37 431.65,372.38 432.64,372.38 432.64,370.41 433.63,370.41 433.63,369.42 434.61,369.42 434.61,367.45 435.6,367.45 435.6,366.46 436.59,366.46 436.59,364.48 437.58,364.48 437.58,363.49 438.57,363.49 438.57,361.52 439.55,361.52 439.55,359.54 440.54,359.54 440.54,358.56 441.53,358.56 441.53,356.58 442.52,356.58 442.52,354.6 443.5,354.6 443.5,353.62 444.49,353.62 444.49,351.64 445.48,351.64 445.48,349.67 446.47,349.67 446.47,347.69 447.46,347.69 447.46,345.71 448.44,345.71 448.44,343.74 449.43,343.74 449.43,341.76 450.42,341.76 450.42,339.79 451.41,339.79 451.41,337.81 452.39,337.81 452.39,335.84 453.38,335.84 453.38,333.86 454.37,333.86 454.37,330.9 455.36,330.9 455.36,328.92 456.35,328.92 456.35,326.95 457.33,326.95 457.33,323.98 458.32,323.98 458.32,322.01 459.31,322.01 459.31,319.05 460.3,319.05 460.3,316.08 461.28,316.08 461.28,313.12 462.27,313.12 462.27,310.16 463.26,310.16 463.26,307.19 464.25,307.19 464.25,304.23 465.24,304.23 465.24,300.28 466.22,300.28 466.22,297.31 467.21,297.31 467.21,293.36 468.2,293.36 468.2,288.42 469.19,288.42 469.19,284.47 470.17,284.47 470.17,278.55 471.16,278.55 471.16,273.61 472.15,273.61 472.15,265.71 473.14,265.71 473.14,255.83 474.13,255.83 474.13,217.3 473.14,217.3 473.14,208.41 472.15,208.41 472.15,200.51 471.16,200.51 471.16,194.59 470.17,194.59 470.17,189.65 469.19,189.65 469.19,184.71 468.2,184.71 468.2,180.76 467.21,180.76 467.21,176.81 466.22,176.81 466.22,173.84 465.24,173.84 465.24,169.89 464.25,169.89 464.25,166.93 463.26,166.93 463.26,163.96 462.27,163.96 462.27,161 461.28,161 461.28,158.04 460.3,158.04 460.3,155.08 459.31,155.08 459.31,152.11 458.32,152.11 458.32,150.14 457.33,150.14 457.33,147.17 456.35,147.17 456.35,145.2 455.36,145.2 455.36,142.23 454.37,142.23 454.37,140.26 453.38,140.26 453.38,138.28 452.39,138.28 452.39,136.31 451.41,136.31 451.41,134.33 450.42,134.33 450.42,132.36 449.43,132.36 449.43,130.38 448.44,130.38 448.44,128.41 447.46,128.41 447.46,126.43 446.47,126.43 446.47,124.45 445.48,124.45 445.48,122.48 444.49,122.48 444.49,120.5 443.5,120.5 443.5,119.52 442.52,119.52 442.52,117.54 441.53,117.54 441.53,115.56 440.54,115.56 440.54,113.59 439.55,113.59 439.55,112.6 438.57,112.6 438.57,110.63 437.58,110.63 437.58,109.64 436.59,109.64 436.59,107.66 435.6,107.66 435.6,106.67 434.61,106.67 434.61,104.7 433.63,104.7 433.63,103.71 432.64,103.71 432.64,101.74 431.65,101.74 431.65,100.75 430.66,100.75 430.66,98.77 429.68,98.77 429.68,97.78 428.69,97.78 428.69,96.8 427.7,96.8 427.7,94.82 426.71,94.82 426.71,93.83 425.72,93.83 425.72,92.85 424.74,92.85 424.74,90.87 423.75,90.87 423.75,89.88 422.76,89.88 422.76,88.89 421.77,88.89 421.77,87.91 420.79,87.91 420.79,85.93 419.8,85.93 419.8,84.94 418.81,84.94 418.81,83.96 417.82,83.96 417.82,82.97 416.83,82.97 416.83,81.98 415.85,81.98 415.85,80.99 414.86,80.99 414.86,79.02 413.87,79.02 413.87,78.03 412.88,78.03 412.88,77.04 411.9,77.04 411.9,76.05 410.91,76.05 410.91,75.07 409.92,75.07 409.92,74.08 408.93,74.08 408.93,73.09 407.94,73.09 407.94,72.1 406.96,72.1 406.96,71.11 405.97,71.11 405.97,70.13 404.98,70.13 404.98,69.14 403.99,69.14 403.99,68.15 403.01,68.15 403.01,67.16 402.02,67.16 402.02,66.18 401.03,66.18 401.03,65.19 400.04,65.19 400.04,64.2 399.05,64.2 399.05,63.21 398.07,63.21 398.07,62.22 397.08,62.22 397.08,61.24 396.09,61.24 396.09,60.25 395.1,60.25 395.1,59.26 394.12,59.26 394.12,58.27 392.14,58.27 392.14,57.29 391.15,57.29 391.15,56.3 390.16,56.3 390.16,55.31 389.18,55.31 389.18,54.32 388.19,54.32 388.19,53.33 386.21,53.33 386.21,52.35 385.23,52.35 385.23,51.36 384.24,51.36 384.24,50.37 383.25,50.37 383.25,49.38 381.27,49.38 381.27,48.4 380.29,48.4 380.29,47.41 379.3,47.41 379.3,46.42 377.32,46.42 377.32,45.43 376.34,45.43 376.34,44.44 375.35,44.44 375.35,43.46 373.37,43.46 373.37,42.47 372.38,42.47 372.38,41.48 370.41,41.48 370.41,40.49 369.42,40.49 369.42,39.51 367.45,39.51 367.45,38.52 366.46,38.52 366.46,37.53 364.48,37.53 364.48,36.54 363.49,36.54 363.49,35.55 361.52,35.55 361.52,34.57 360.53,34.57 360.53,33.58 358.56,33.58 358.56,32.59 356.58,32.59 356.58,31.6 354.6,31.6 354.6,30.62 353.62,30.62 353.62,29.63 351.64,29.63 351.64,28.64 349.67,28.64 349.67,27.65 347.69,27.65 347.69,26.66 345.71,26.66 345.71,25.68 343.74,25.68 343.74,24.69 341.76,24.69 341.76,23.7 339.79,23.7 339.79,22.71 337.81,22.71 337.81,21.73 335.84,21.73 335.84,20.74 333.86,20.74 333.86,19.75 331.89,19.75 331.89,18.76 328.92,18.76 328.92,17.77 326.95,17.77 326.95,16.79 323.98,16.79 323.98,15.8 322.01,15.8 322.01,14.81 319.05,14.81 319.05,13.82 316.08,13.82 316.08,12.84 313.12,12.84 313.12,11.85 310.16,11.85 310.16,10.86 307.19,10.86 307.19,9.87 304.23,9.87 304.23,8.89 300.28,8.89 300.28,7.9 297.31,7.9 297.31,6.91 293.36,6.91 293.36,5.92 289.41,5.92 289.41,4.93 284.47,4.93 284.47,3.95 279.53,3.95 279.53,2.96 273.61,2.96 273.61,1.97 266.69,1.97 266.69,0.98 256.82,0.98 256.82,-0.01 218.29,-0.01 "/>
   <polygon class="fil1" points="220.27,165.94 219.28,165.94 219.28,166.93 218.29,166.93 218.29,167.92 217.3,167.92 217.3,168.9 216.32,168.9 216.32,169.89 215.33,169.89 215.33,170.88 214.34,170.88 214.34,171.87 213.35,171.87 213.35,172.86 212.37,172.86 212.37,173.84 211.38,173.84 211.38,174.83 210.39,174.83 210.39,175.82 209.4,175.82 209.4,176.81 208.41,176.81 208.41,177.79 207.43,177.79 207.43,178.78 206.44,178.78 206.44,179.77 205.45,179.77 205.45,180.76 204.46,180.76 204.46,181.74 203.48,181.74 203.48,182.73 202.49,182.73 202.49,183.72 201.5,183.72 201.5,184.71 200.51,184.71 200.51,185.7 199.52,185.7 199.52,186.68 198.54,186.68 198.54,187.67 197.55,187.67 197.55,188.66 196.56,188.66 196.56,189.65 195.57,189.65 195.57,190.63 194.59,190.63 194.59,191.62 193.6,191.62 193.6,192.61 192.61,192.61 192.61,193.6 191.62,193.6 191.62,194.59 190.63,194.59 190.63,195.57 189.65,195.57 189.65,196.56 188.66,196.56 188.66,197.55 187.67,197.55 187.67,198.54 186.68,198.54 186.68,199.52 185.7,199.52 185.7,200.51 184.71,200.51 184.71,201.5 183.72,201.5 183.72,202.49 181.74,202.49 181.74,203.48 179.77,203.48 179.77,204.46 176.81,204.46 176.81,205.45 170.88,205.45 170.88,204.46 167.92,204.46 167.92,203.48 165.94,203.48 165.94,202.49 163.96,202.49 163.96,201.5 162.98,201.5 162.98,200.51 161.99,200.51 161.99,199.52 161,199.52 161,197.55 160.01,197.55 160.01,195.57 159.03,195.57 159.03,192.61 158.04,192.61 158.04,186.68 159.03,186.68 159.03,183.72 160.01,183.72 160.01,181.74 161,181.74 161,179.77 161.99,179.77 161.99,178.78 162.98,178.78 162.98,177.79 163.96,177.79 163.96,176.81 164.95,176.81 164.95,175.82 165.94,175.82 165.94,174.83 166.93,174.83 166.93,173.84 167.92,173.84 167.92,172.86 168.9,172.86 168.9,171.87 169.89,171.87 169.89,170.88 170.88,170.88 170.88,169.89 171.87,169.89 171.87,168.9 172.86,168.9 172.86,167.92 173.84,167.92 173.84,166.93 174.83,166.93 174.83,165.94 175.82,165.94 175.82,164.95 176.81,164.95 176.81,163.96 177.79,163.96 177.79,162.98 178.78,162.98 178.78,161.99 179.77,161.99 179.77,161 180.76,161 180.76,160.01 181.74,160.01 181.74,159.03 182.73,159.03 182.73,158.04 183.72,158.04 183.72,157.05 184.71,157.05 184.71,156.06 185.7,156.06 185.7,155.08 186.68,155.08 186.68,154.09 187.67,154.09 187.67,153.1 188.66,153.1 188.66,152.11 189.65,152.11 189.65,151.12 190.63,151.12 190.63,150.14 191.62,150.14 191.62,149.15 192.61,149.15 192.61,148.16 193.6,148.16 193.6,147.17 194.59,147.17 194.59,146.19 195.57,146.19 195.57,145.2 196.56,145.2 196.56,144.21 197.55,144.21 197.55,143.22 198.54,143.22 198.54,142.23 199.52,142.23 199.52,141.25 200.51,141.25 200.51,140.26 201.5,140.26 201.5,139.27 202.49,139.27 202.49,138.28 203.48,138.28 203.48,137.3 204.46,137.3 204.46,136.31 205.45,136.31 205.45,135.32 206.44,135.32 206.44,134.33 207.43,134.33 207.43,133.34 208.41,133.34 208.41,132.36 209.4,132.36 209.4,131.37 210.39,131.37 210.39,130.38 211.38,130.38 211.38,129.39 212.37,129.39 212.37,128.41 213.35,128.41 213.35,127.42 214.34,127.42 214.34,126.43 215.33,126.43 215.33,125.44 216.32,125.44 216.32,124.45 217.3,124.45 217.3,123.47 218.29,123.47 218.29,122.48 219.28,122.48 219.28,121.49 220.27,121.49 220.27,120.5 221.26,120.5 221.26,119.52 222.24,119.52 222.24,118.53 223.23,118.53 223.23,117.54 224.22,117.54 224.22,116.55 225.21,116.55 225.21,115.56 226.19,115.56 226.19,114.58 227.18,114.58 227.18,113.59 229.16,113.59 229.16,112.6 231.13,112.6 231.13,111.61 235.08,111.61 235.08,110.63 239.04,110.63 239.04,111.61 242.99,111.61 242.99,112.6 244.96,112.6 244.96,113.59 246.94,113.59 246.94,114.58 247.93,114.58 247.93,115.56 248.91,115.56 248.91,116.55 249.9,116.55 249.9,117.54 250.89,117.54 250.89,118.53 251.88,118.53 251.88,119.52 252.86,119.52 252.86,120.5 253.85,120.5 253.85,121.49 254.84,121.49 254.84,122.48 255.83,122.48 255.83,123.47 256.82,123.47 256.82,124.45 257.8,124.45 257.8,125.44 258.79,125.44 258.79,126.43 259.78,126.43 259.78,127.42 260.77,127.42 260.77,128.41 261.75,128.41 261.75,129.39 262.74,129.39 262.74,130.38 263.73,130.38 263.73,131.37 264.72,131.37 264.72,132.36 265.71,132.36 265.71,133.34 266.69,133.34 266.69,134.33 267.68,134.33 267.68,135.32 268.67,135.32 268.67,136.31 269.66,136.31 269.66,137.3 270.64,137.3 270.64,138.28 271.63,138.28 271.63,139.27 272.62,139.27 272.62,140.26 273.61,140.26 273.61,141.25 274.6,141.25 274.6,142.23 275.58,142.23 275.58,143.22 276.57,143.22 276.57,144.21 277.56,144.21 277.56,145.2 278.55,145.2 278.55,146.19 279.53,146.19 279.53,147.17 280.52,147.17 280.52,148.16 281.51,148.16 281.51,149.15 282.5,149.15 282.5,150.14 283.49,150.14 283.49,151.12 284.47,151.12 284.47,152.11 285.46,152.11 285.46,153.1 286.45,153.1 286.45,154.09 287.44,154.09 287.44,155.08 288.42,155.08 288.42,156.06 289.41,156.06 289.41,157.05 290.4,157.05 290.4,158.04 291.39,158.04 291.39,159.03 292.38,159.03 292.38,160.01 293.36,160.01 293.36,161 294.35,161 294.35,161.99 295.34,161.99 295.34,162.98 296.33,162.98 296.33,163.96 297.31,163.96 297.31,164.95 298.3,164.95 298.3,165.94 299.29,165.94 299.29,166.93 300.28,166.93 300.28,167.92 301.27,167.92 301.27,168.9 302.25,168.9 302.25,169.89 303.24,169.89 303.24,170.88 304.23,170.88 304.23,171.87 305.22,171.87 305.22,172.86 306.2,172.86 306.2,173.84 307.19,173.84 307.19,174.83 308.18,174.83 308.18,175.82 309.17,175.82 309.17,176.81 310.16,176.81 310.16,177.79 311.14,177.79 311.14,178.78 312.13,178.78 312.13,179.77 313.12,179.77 313.12,181.74 314.11,181.74 314.11,183.72 315.09,183.72 315.09,186.68 316.08,186.68 316.08,192.61 315.09,192.61 315.09,195.57 314.11,195.57 314.11,197.55 313.12,197.55 313.12,199.52 312.13,199.52 312.13,200.51 311.14,200.51 311.14,201.5 310.16,201.5 310.16,202.49 308.18,202.49 308.18,203.48 306.2,203.48 306.2,204.46 303.24,204.46 303.24,205.45 297.31,205.45 297.31,204.46 294.35,204.46 294.35,203.48 292.38,203.48 292.38,202.49 290.4,202.49 290.4,201.5 289.41,201.5 289.41,200.51 288.42,200.51 288.42,199.52 287.44,199.52 287.44,198.54 286.45,198.54 286.45,197.55 285.46,197.55 285.46,196.56 284.47,196.56 284.47,195.57 283.49,195.57 283.49,194.59 282.5,194.59 282.5,193.6 281.51,193.6 281.51,192.61 280.52,192.61 280.52,191.62 279.53,191.62 279.53,190.63 278.55,190.63 278.55,189.65 277.56,189.65 277.56,188.66 276.57,188.66 276.57,187.67 275.58,187.67 275.58,186.68 274.6,186.68 274.6,185.7 273.61,185.7 273.61,184.71 272.62,184.71 272.62,183.72 271.63,183.72 271.63,182.73 270.64,182.73 270.64,181.74 269.66,181.74 269.66,180.76 268.67,180.76 268.67,179.77 267.68,179.77 267.68,178.78 266.69,178.78 266.69,177.79 265.71,177.79 265.71,176.81 264.72,176.81 264.72,175.82 263.73,175.82 263.73,174.83 262.74,174.83 262.74,173.84 261.75,173.84 261.75,172.86 260.77,172.86 260.77,171.87 259.78,171.87 259.78,170.88 258.79,170.88 258.79,169.89 257.8,169.89 257.8,168.9 256.82,168.9 256.82,167.92 255.83,167.92 255.83,166.93 254.84,166.93 254.84,165.94 253.85,165.94 253.85,164.95 252.86,164.95 252.86,349.67 251.88,349.67 251.88,353.62 250.89,353.62 250.89,355.59 249.9,355.59 249.9,356.58 248.91,356.58 248.91,358.56 247.93,358.56 247.93,359.54 245.95,359.54 245.95,360.53 244.96,360.53 244.96,361.52 242.99,361.52 242.99,362.51 239.04,362.51 239.04,363.49 235.08,363.49 235.08,362.51 231.13,362.51 231.13,361.52 229.16,361.52 229.16,360.53 228.17,360.53 228.17,359.54 226.19,359.54 226.19,358.56 225.21,358.56 225.21,356.58 224.22,356.58 224.22,355.59 223.23,355.59 223.23,353.62 222.24,353.62 222.24,349.67 221.26,349.67 221.26,164.95 220.27,164.95 "/>
  </g>
 </g>
</svg>
